<svg xmlns="http://www.w3.org/2000/svg" viewBox="0 0 24 24" width="24" height="24">
  <path fill="#FFFFFF" d="M20.317 4.369A19.791 19.791 0 0016.558 3c-.2.352-.43.83-.591 1.215a18.27 18.27 0 00-5.933 0A8.258 8.258 0 009.445 3c-1.37.252-2.713.635-4.104 1.178C2.188 8.413 1.372 12.07 1.675 15.674a19.92 19.92 0 006.052 3.09c.49-.675.927-1.392 1.304-2.144-.718-.269-1.405-.597-2.07-.978.172-.123.34-.252.504-.386 3.989 1.888 8.3 1.888 12.246 0 .166.134.334.263.504.386-.664.381-1.352.709-2.07.978.377.752.813 1.469 1.304 2.144a19.9 19.9 0 006.052-3.09c.496-5.975-.837-9.59-3.784-11.305zM9.861 13.58c-.949 0-1.724-.87-1.724-1.942 0-1.072.757-1.943 1.724-1.943.968 0 1.742.871 1.724 1.943 0 1.072-.756 1.942-1.724 1.942zm6.298 0c-.949 0-1.724-.87-1.724-1.942 0-1.072.757-1.943 1.724-1.943.968 0 1.742.871 1.724 1.943 0 1.072-.756 1.942-1.724 1.942z"/>
</svg>




























