<?xml version="1.0" encoding="UTF-8"?>
<svg id="Ebene_2" data-name="Ebene 2" xmlns="http://www.w3.org/2000/svg" viewBox="0 0 792.71 460.39">
  <defs>
    <style>
      .cls-1 {
        fill: #86a68b;
      }

      .cls-2 {
        fill: #fff;
      }

      .cls-3 {
        fill: none;
      }

      .cls-4 {
        isolation: isolate;
      }
    </style>
  </defs>
  <g id="Ebene_2-2" data-name="Ebene 2">
    <g class="cls-4">
      <path class="cls-2" d="M217.35,460.39h-10.88l-11.5-32.41v-6.29h10.25v-22.11h-13.15v60.81h-10.43v-69.78h27.69c4.19,0,6.29,2.14,6.29,6.42v25.37c0,2.94-1,4.84-2.99,5.71-1.07.45-3.33.67-6.78.67l11.5,31.61Z"/>
      <path class="cls-2" d="M277.17,454.01c0,4.25-2.11,6.38-6.33,6.38h-22.65c-4.13,0-6.2-2.12-6.2-6.38v-56.98c0-4.28,2.07-6.42,6.2-6.42h22.65c4.22,0,6.33,2.14,6.33,6.42v56.98ZM266.73,451.43v-51.85h-14.31v51.85h14.31Z"/>
      <path class="cls-2" d="M331.23,460.39h-27.42v-69.78h10.43v60.46h16.99v9.32Z"/>
      <path class="cls-2" d="M384.63,460.39h-28.94v-69.78h28.67v9.23h-18.23v20.38h15.69v9.05h-15.69v21.89h18.5v9.23Z"/>
      <path class="cls-2" d="M443.73,428.6c0,4.34-2.12,6.51-6.38,6.51h-16.9v25.28h-10.43v-69.78h27.33c4.25,0,6.38,2.14,6.38,6.42v31.57ZM433.21,426.15v-26.57h-12.75v26.57h12.75Z"/>
      <path class="cls-2" d="M496.81,460.39h-27.42v-69.78h10.43v60.46h16.99v9.32Z"/>
      <path class="cls-2" d="M556.63,460.39h-10.34l-2.1-13.24h-13.06l-2.1,13.24h-10.3v-.18l13.51-69.69h10.97l13.42,69.86ZM542.72,438.19l-5.08-31.48-5.13,31.48h10.21Z"/>
      <path class="cls-2" d="M615.82,391.02l-9.23,29.16c-1.13,2.88-2.66,7.74-4.59,14.58v25.64h-10.48v-25.64c-.48-2.32-1.16-4.77-2.05-7.36-1.58-4.43-2.42-6.84-2.54-7.22l-9.18-29.16s-.03-.16,0-.4h10.75l8.34,30.32,8.29-30.32h10.7v.4Z"/>
    </g>
    <rect class="cls-3" x="346.37" y="-60.94" width="99.96" height="791.42" transform="translate(56.21 726.53) rotate(-89.22)"/>
    <path class="cls-1" d="M734.18,311.86c-10.37-.65-20.33-1.8-30.28-1.81-34.52-.03-69.05.09-103.58.63-21.29.33-42.57,1.26-63.83,2.43-20.98,1.16-41.93,2.95-62.89,4.51-17.78,1.32-35.56,2.6-53.31,4.09-15.33,1.29-30.64,2.81-45.94,4.33-14.81,1.48-29.61,3.07-44.41,4.66-17.47,1.87-34.94,3.66-52.39,5.71-19.84,2.34-39.68,4.82-59.49,7.42-20.78,2.72-41.56,5.48-62.29,8.54-24.8,3.66-49.63,7.22-74.3,11.64-25.12,4.49-50.06,10.02-75.11,14.94-1.99.39-4.21-.42-6.31-.67,1.66-1.68,3.07-4.4,5.02-4.86,14.65-3.49,29.33-7.04,44.16-9.63,27.56-4.82,55.19-9.33,82.88-13.37,27.73-4.04,55.55-7.4,83.35-10.95,27.33-3.49,54.65-7.03,82.02-10.21,21.81-2.54,43.68-4.52,65.52-6.84,23.05-2.45,46.07-5.2,69.14-7.5,20.16-2,40.38-3.47,60.56-5.32,20.91-1.92,41.79-4.14,62.7-6,17.28-1.54,34.58-2.69,51.87-4.12,17.53-1.45,35.05-3.07,52.59-4.54,11.94-1,23.87-2.24,35.83-2.73,23.96-.99,47.94-1.67,71.91-2.13,4.29-.08,8.83.86,12.86,2.38,12.36,4.66,15.83,19.22,5.2,26.73-10.37,7.32-22.52,12.82-34.65,16.8-10.11,3.32-19.72-7.37-18.1-18.04.28-1.89.77-3.74,1.27-6.11v.02Z"/>
    <g>
      <path class="cls-2" d="M76.22,131.79c-9.76,8.46-20.25,15.79-31.48,21.96-11.23,6.18-22.38,12.2-33.43,18.06-6.18-6.51-9.36-13.42-9.52-20.74-.17-7.32,2.84-14.23,9.03-20.74,5.86-6.18,11.87-12.03,18.06-17.57,6.18-5.53,12.52-10.57,19.03-15.13,15.62-11.39,35.14-22.12,58.57-32.21,23.43-10.08,48.08-18.22,73.94-24.4,25.87-6.18,51.49-9.76,76.87-10.74,25.38-.98,47.99,1.79,67.84,8.3,32.21,10.74,41.32,32.05,27.33,63.94-6.51,15.3-15.46,27.82-26.84,37.58-11.39,9.76-23.6,18.87-36.61,27.33-24.4,16.27-49.87,30.02-76.38,41.24-26.52,11.23-53.77,21.07-81.75,29.53-1.63.33-3.74,1.14-6.34,2.44-.33,0-.66.98-.98,2.93,10.08,1.95,20.01,3.83,29.77,5.61,9.76,1.79,19.52,3.5,29.28,5.13,18.55,2.61,36.03,7.32,52.47,14.15,16.43,6.83,32.29,15.78,47.59,26.84,4.88,3.58,9.43,7.64,13.67,12.2,4.22,4.55,6.99,10.25,8.3,17.08.65,3.58.73,6.02.24,7.32-.49,1.3-2.85,4.07-7.08,8.3-5.21-7.16-11.07-13.26-17.57-18.3-6.51-5.05-13.35-9.36-20.5-12.93-7.16-3.58-14.64-6.76-22.45-9.52-7.81-2.77-15.62-5.45-23.43-8.05-17.9-6.18-35.63-10.98-53.2-14.4-17.57-3.42-35.8-6.27-54.66-8.54-7.49,10.41-14.24,22.04-20.25,34.9-6.02,12.85-11.31,24.97-15.86,36.36-.66,1.95-1.39,3.98-2.2,6.1-.82,2.11-1.71,4.31-2.68,6.59-4.23,10.08-11.55,13.83-21.96,11.23-5.54-5.54-7.89-11.23-7.08-17.08.81-5.86,2.52-11.55,5.12-17.08,2.93-6.51,6.1-12.86,9.52-19.03,3.42-6.18,6.91-12.53,10.49-19.03,1.62-3.26,4.15-7.89,7.57-13.91s6.1-10.81,8.05-14.4c-8.47-2.93-14.73-4.96-18.79-6.1-4.07-1.14-7.49-2.03-10.25-2.68-2.77-.65-5.61-1.46-8.54-2.44s-7.32-2.6-13.18-4.88c-3.58-3.58-4.56-6.18-2.93-7.81,1.62-1.62,8.13-2.76,19.52-3.42,7.15-.32,13.25-.98,18.3-1.95,5.04-.98,9.76-2.03,14.15-3.17s8.95-2.36,13.67-3.66c4.71-1.3,10.49-2.76,17.33-4.39,14.96-26.03,29.44-51.57,43.44-76.63,13.99-25.05,27.65-51.74,41-80.04-21.48,6.18-42.14,13.51-61.99,21.96-19.85,8.46-39.05,19.2-57.59,32.21.98,1.95,1.87,3.83,2.68,5.61.81,1.79,1.71,3.83,2.68,6.1v-.03ZM92.33,243.07c-4.23.33-8.22.57-11.96.73-3.74.17-7.73.41-11.96.73,7.48,2.28,13.09,3.26,16.84,2.93,3.74-.32,6.1-1.78,7.08-4.39h0ZM217.76,56.63c-.98,5.54-1.71,10.49-2.2,14.89-.49,4.39-1.55,8.38-3.17,11.96-4.56,8.79-9.27,17.49-14.15,26.11-4.88,8.63-9.76,17.33-14.64,26.11-7.49,12.37-14.89,24.89-22.21,37.58-7.32,12.69-15.05,25.87-23.18,39.53,2.6-.32,4.47-.4,5.61-.24,1.14.17,2.03.08,2.68-.24,15.62-7.15,31.15-14.15,46.61-20.99,15.45-6.83,30.82-14.15,46.12-21.96,13.01-6.83,25.38-14.47,37.09-22.94,11.71-8.46,22.28-18.38,31.72-29.77,8.79-10.41,15.13-21.64,19.03-33.68,2.6-6.83,2.27-12.45-.98-16.84-3.26-4.39-8.63-7.4-16.11-9.03-15.62-2.93-31.24-3.98-46.86-3.17-15.62.82-30.75,1.71-45.39,2.68h.03Z"/>
      <path class="cls-2" d="M332.45,269.91c-11.07,4.22-20.01,1.62-26.84-7.81-1.63-2.27-3.1-4.71-4.39-7.32-1.3-2.6-2.27-5.2-2.93-7.81-1.3-5.53-1.38-12.61-.24-21.23s3.1-17.33,5.86-26.11c2.76-8.79,6.18-17,10.25-24.65,4.06-7.64,8.21-13.42,12.45-17.33,4.22,0,7.89.08,10.98.24,3.09.17,6.1.08,9.03-.24,11.71-1.62,21.55,1.14,29.53,8.3,7.97,7.16,11.63,16.59,10.98,28.31-.33,6.51-2.2,13.67-5.61,21.48-3.42,7.81-7.73,15.37-12.93,22.7-5.21,7.32-10.98,13.83-17.33,19.52-6.34,5.7-12.61,9.69-18.79,11.96h-.02ZM347.59,177.18c-1.95,5.54-4.39,10.98-7.32,16.35-2.93,5.37-5.7,10.91-8.3,16.6-2.61,5.7-4.48,11.8-5.61,18.3-1.14,6.51-.73,13.67,1.22,21.47,24.72-14.96,40.02-34.81,45.88-59.54.65-2.27.16-4.96-1.46-8.05-1.63-3.09-3.42-5.61-5.37-7.56-5.54-5.53-11.88-4.71-19.03,2.44h-.01Z"/>
      <path class="cls-2" d="M427.62,269.91c-11.07,4.22-20.01,1.62-26.84-7.81-1.63-2.27-3.1-4.71-4.39-7.32-1.3-2.6-2.27-5.2-2.93-7.81-1.3-5.53-1.38-12.61-.24-21.23s3.1-17.33,5.86-26.11c2.76-8.79,6.18-17,10.25-24.65,4.06-7.64,8.21-13.42,12.45-17.33,4.22,0,7.89.08,10.98.24,3.09.17,6.1.08,9.03-.24,11.71-1.62,21.55,1.14,29.53,8.3,7.97,7.16,11.63,16.59,10.98,28.31-.33,6.51-2.2,13.67-5.61,21.48s-7.73,15.37-12.93,22.7c-5.21,7.32-10.98,13.83-17.33,19.52-6.34,5.7-12.61,9.69-18.79,11.96h-.02ZM442.75,177.18c-1.95,5.54-4.39,10.98-7.32,16.35-2.93,5.37-5.7,10.91-8.3,16.6-2.61,5.7-4.48,11.8-5.61,18.3-1.14,6.51-.73,13.67,1.22,21.47,24.72-14.96,40.02-34.81,45.88-59.54.65-2.27.16-4.96-1.46-8.05-1.63-3.09-3.42-5.61-5.37-7.56-5.54-5.53-11.88-4.71-19.03,2.44h-.01Z"/>
      <path class="cls-2" d="M688.74,65.41c8.79,0,17.57-.32,26.36-.98,8.78-.65,17.49-.89,26.11-.73,8.62.17,17.24.98,25.87,2.44,8.62,1.46,17.16,4.15,25.62,8.05-36.77,0-73.38,1.14-109.82,3.42-36.45,2.28-73.05,6.67-109.82,13.18-13.67,24.73-26.04,49.95-37.09,75.65-11.07,25.71-19.36,52.55-24.89,80.53-1.3,6.83-2.2,13.83-2.68,20.99-.49,7.15-.9,14.31-1.22,21.48,0,1.62.08,3.58.24,5.86.16,2.27.32,4.55.49,6.83.16,2.27.49,4.15.98,5.61.49,1.46,1.22,1.87,2.2,1.22,8.79-2.28,16.67-5.7,23.67-10.25,6.99-4.56,13.5-9.52,19.52-14.89,6.02-5.37,12.03-10.82,18.06-16.35,6.02-5.53,12.45-10.57,19.28-15.13-1.63,2.61-3.1,5.21-4.39,7.81-1.3,2.61-2.77,4.88-4.39,6.83-6.83,7.81-13.59,15.53-20.25,23.18-6.67,7.64-13.59,15.21-20.74,22.7-5.21,5.53-10.91,9.84-17.08,12.93-6.18,3.09-13.02,3.33-20.5.73-7.81-2.61-13.58-7.08-17.33-13.42-3.74-6.34-6.1-13.42-7.08-21.23-.98-9.76-.49-19.36,1.46-28.8,4.56-25.38,11.23-49.94,20.01-73.7,8.79-23.75,18.87-47.34,30.26-70.77.98-2.27,2.03-4.55,3.17-6.83,1.14-2.27,2.2-4.55,3.17-6.83.32-.65.65-1.54.98-2.68.32-1.14,1.14-3.33,2.44-6.59-15.62,4.23-30.5,8.3-44.66,12.2-14.15,3.9-28.06,7.65-41.73,11.23-4.55-2.27-8.46-4.88-11.71-7.81s-4.22-8.13-2.93-15.62c2.61-.98,5.37-2.27,8.3-3.9,2.93-1.62,6.18-2.76,9.76-3.42,13.35-2.6,26.52-4.88,39.53-6.83,13.01-1.95,26.19-3.9,39.53-5.86,2.6-.65,5.28-1.05,8.05-1.22,2.76-.16,5.61-.56,8.54-1.22,7.15-12.36,14.15-24.56,20.99-36.61,6.83-12.03,13.67-24.24,20.5-36.61h13.18c3.58,3.9,5.2,7.73,4.88,11.47-.33,3.74-1.63,7.41-3.9,10.98-3.91,7.16-7.81,14.15-11.71,20.99-3.91,6.83-7.81,13.67-11.71,20.5-.66.66-1.06,1.46-1.22,2.44-.17.98-.57,2.28-1.22,3.9,17.89-.98,35.46-1.95,52.71-2.93,17.24-.98,34.65-1.62,52.22-1.95h0Z"/>
      <path class="cls-2" d="M574.53,320.67c-7.81-1.63-13.01-4.48-15.62-8.54-2.6-4.07-3.74-9.03-3.42-14.89.33-6.51,1.79-12.61,4.39-18.3,2.61-5.7,5.86-10.81,9.76-15.37,4.88-5.53,9.85-11.06,14.89-16.6,5.05-5.53,10.17-11.06,15.37-16.59,0-1.62-.17-2.6-.49-2.93-6.18-7.48-9.59-15.62-10.25-24.4-.65-8.79.41-17.49,3.17-26.11s6.83-16.67,12.2-24.16c5.37-7.48,10.98-13.5,16.84-18.06,4.55-3.58,9.11-6.59,13.67-9.03,4.55-2.44,9.11-4.96,13.67-7.57,3.58.66,6.66,1.3,9.27,1.95,2.6.66,5.2,1.3,7.81,1.95,1.95,4.23,2.6,9.44,1.95,15.62-.66,6.18-2.28,12.37-4.88,18.55-2.61,6.18-6.18,12.13-10.74,17.81-4.56,5.7-9.44,10.17-14.64,13.42,0-3.9.73-7.56,2.2-10.98s3.09-6.75,4.88-10.01c1.78-3.25,3.49-6.51,5.13-9.76,1.62-3.25,2.6-6.67,2.93-10.25-14.32,9.11-24.57,20.18-30.75,33.19-6.18,13.02-7.49,26.36-3.91,40.02,5.86-1.3,11.55-3.17,17.08-5.61s11.14-4.88,16.84-7.32c5.69-2.44,11.63-4.55,17.81-6.34,6.18-1.78,12.85-2.84,20.01-3.17-2.61,2.93-6.76,6.1-12.45,9.52-5.7,3.42-11.88,6.83-18.55,10.25s-13.26,6.83-19.77,10.25-11.71,6.27-15.62,8.54c-1.63,9.11-4.15,18.55-7.57,28.31-3.42,9.76-7.4,18.79-11.96,27.09s-9.44,15.21-14.64,20.74-10.08,8.46-14.64,8.78h.03ZM600.4,250.88c-1.63,2.61-3.74,5.21-6.34,7.81-2.6,2.61-5.12,5.37-7.56,8.3s-4.47,5.93-6.1,9.03c-1.62,3.09-2.11,6.59-1.46,10.49,5.21-1.95,9.2-5.78,11.96-11.47s5.28-12.28,7.56-19.77c-.66-.65-.33-1.38.98-2.2,1.3-.81,1.62-1.54.98-2.2h-.02Z"/>
    </g>
  </g>
</svg>